<svg xmlns="http://www.w3.org/2000/svg" viewBox="0 0 140.1 140.31"><defs><style>.cls-1{fill:#fff;}</style></defs><title>Broadcast message</title><g id="Layer_2" data-name="Layer 2"><g id="Layer_3" data-name="Layer 3"><path class="cls-1" d="M70.16,140.31a70.81,70.81,0,0,1-33.84-8.57l-.1-.06a4.5,4.5,0,0,0-3.44-.46L7.1,138.11a4,4,0,0,1-4.91-4.89L9,107.68c0-.06,0-.13,0-.19a4.52,4.52,0,0,0-.4-3.36,71.21,71.21,0,0,1-8-43.95A69.86,69.86,0,0,1,70.05,0a69.57,69.57,0,0,1,49.6,20.48l-2.83,2.83,2.83-2.82a70.53,70.53,0,0,1,0,99.33A69.26,69.26,0,0,1,80,139.62,70.59,70.59,0,0,1,70.16,140.31Zm-30-15.57a62.84,62.84,0,0,0,38.69,7A61.89,61.89,0,0,0,132.1,70.15a61.81,61.81,0,0,0-18.11-44h0a62.28,62.28,0,0,0-87.87,0A61.48,61.48,0,0,0,8.61,61.29a63.13,63.13,0,0,0,7.07,39,12.49,12.49,0,0,1,1.18,9,2,2,0,0,1-.05.24l-5.1,19,19-5.1A12.44,12.44,0,0,1,40.2,124.74Z"/><path class="cls-1" d="M116.36,83.34a115.88,115.88,0,0,0-5.62-23.53c-.08-.24-.16-.48-.23-.73-4-12.11-9.1-22.19-13.61-27.39-3.05-3.82-5.72-5.36-8-4.57a3.65,3.65,0,0,0-1.68,1.27L33.14,72.72a5.37,5.37,0,0,0-1.66,5.92l.25.71-5.67,2a3.87,3.87,0,0,0-2.38,4.94l1.67,4.78a3.88,3.88,0,0,0,4.93,2.39h0l5.67-2,.25.71a5.36,5.36,0,0,0,5,3.59l7.72.1,4.69,13.42a6.15,6.15,0,0,0,11.61-4.06l-2.09-6A1.39,1.39,0,0,0,63,99L62,96l49.09.62a3.94,3.94,0,0,0,1,.14,3.6,3.6,0,0,0,1.17-.2C116.15,95.58,117.19,91.12,116.36,83.34Z"/></g></g></svg>