<svg xmlns="http://www.w3.org/2000/svg" viewBox="0 0 142.73 149.46"><defs><style>.cls-1{fill:#fff;}</style></defs><title>Dashboard</title><g id="Layer_2" data-name="Layer 2"><g id="Layer_3" data-name="Layer 3"><path class="cls-1" d="M25.3,149.39l-17,.07a7.87,7.87,0,0,1-7.89-7.84L0,48.57a7.85,7.85,0,0,1,7.83-7.89l17-.07a7.86,7.86,0,0,1,7.89,7.83l.42,93.06A7.86,7.86,0,0,1,25.3,149.39Z"/><path class="cls-1" d="M79.74,149.18l-17,.07a7.87,7.87,0,0,1-7.89-7.83l-.31-32.69a7.85,7.85,0,0,1,7.83-7.89l17-.07a7.85,7.85,0,0,1,7.89,7.83l.32,32.69A7.86,7.86,0,0,1,79.74,149.18Z"/><path class="cls-1" d="M134.18,149l-17,.07a7.86,7.86,0,0,1-7.89-7.83l-.18-8.19a7.85,7.85,0,0,1,7.83-7.89l17-.07a7.87,7.87,0,0,1,7.89,7.83l.18,8.19A7.86,7.86,0,0,1,134.18,149Z"/><path class="cls-1" d="M122.74,44.59a24.41,24.41,0,0,1-2.56,10.92A4.72,4.72,0,0,0,121,61l8.15,8.15a4.31,4.31,0,0,0,6.7-.78,44.58,44.58,0,0,0,0-47.49,4.32,4.32,0,0,0-6.7-.77L121,28.22a4.72,4.72,0,0,0-.85,5.45A24.38,24.38,0,0,1,122.74,44.59Z"/><path class="cls-1" d="M114.51,67.48a4.72,4.72,0,0,0-5.45-.85A24.58,24.58,0,0,1,74.72,52.08a4.15,4.15,0,0,0-4-2.88H58.84a4.3,4.3,0,0,0-4.18,5.29,44.59,44.59,0,0,0,67.22,27.84,4.31,4.31,0,0,0,.78-6.7Z"/><path class="cls-1" d="M70.77,40a4.16,4.16,0,0,0,4-2.88,24.6,24.6,0,0,1,34.34-14.56,4.7,4.7,0,0,0,5.45-.84l8.15-8.15a4.31,4.31,0,0,0-.78-6.7A44.59,44.59,0,0,0,54.66,34.68,4.31,4.31,0,0,0,58.84,40Z"/></g></g></svg>