<svg xmlns="http://www.w3.org/2000/svg" viewBox="0 0 128.25 101.69"><defs><style>.cls-1{fill:#fff;}</style></defs><title>File Management
</title><g id="Layer_2" data-name="Layer 2"><g id="Layer_3" data-name="Layer 3"><path class="cls-1" d="M104.91,14.61H52.17L41.74,0H3.61A3.61,3.61,0,0,0,0,3.61V92.79l.43,0,20.9-57a3.26,3.26,0,0,1,3.15-2.41h84V18.22A3.61,3.61,0,0,0,104.91,14.61Z"/><path class="cls-1" d="M100.28,101.69H6.87A6.87,6.87,0,0,1,.24,93a2.47,2.47,0,0,1,.1-.29l21.17-58a6.88,6.88,0,0,1,6.58-4.9H121.5c3.91,0,6.75,3.25,6.75,7.72a3.66,3.66,0,0,1-.22,1.23L106.86,96.79A6.89,6.89,0,0,1,100.28,101.69ZM7.36,94.49H100l0,0L121,37v0H28.33v0Z"/></g></g></svg>