<svg xmlns="http://www.w3.org/2000/svg" viewBox="0 0 129.55 123.93"><defs><style>.cls-1{fill:#fff;}</style></defs><title>Group Management
</title><g id="Layer_2" data-name="Layer 2"><g id="Layer_3" data-name="Layer 3"><path class="cls-1" d="M42.28,95.52a24.32,24.32,0,0,0-2.42-2.12l-4.21-2.84h0a14.09,14.09,0,1,0-21.74,0h0L9.69,93.4a23.13,23.13,0,0,0-2.41,2.12A24.7,24.7,0,0,0,0,113v2a8.92,8.92,0,0,0,8.89,8.9H40.66a8.91,8.91,0,0,0,8.89-8.9v-2A24.71,24.71,0,0,0,42.28,95.52Z"/><path class="cls-1" d="M122.28,95.52a24.32,24.32,0,0,0-2.42-2.12l-4.21-2.84h0a14.09,14.09,0,1,0-21.74,0h0L89.69,93.4a23.13,23.13,0,0,0-2.41,2.12A24.7,24.7,0,0,0,80,113v2a8.92,8.92,0,0,0,8.89,8.9h31.77a8.91,8.91,0,0,0,8.89-8.9v-2A24.71,24.71,0,0,0,122.28,95.52Z"/><path class="cls-1" d="M82.28,28a24.32,24.32,0,0,0-2.42-2.12L75.65,23h0a14.09,14.09,0,1,0-21.74,0h0l-4.22,2.83A23.13,23.13,0,0,0,47.28,28,24.71,24.71,0,0,0,40,45.49v2a8.92,8.92,0,0,0,8.89,8.89H80.66a8.91,8.91,0,0,0,8.89-8.89v-2A24.71,24.71,0,0,0,82.28,28Z"/><path class="cls-1" d="M64.78,95.73a4,4,0,0,1-4-4V66.28a4,4,0,0,1,8,0V91.73A4,4,0,0,1,64.78,95.73Z"/><path class="cls-1" d="M48.05,79a4,4,0,0,1,4-4H77.5a4,4,0,0,1,0,8H52.05A4,4,0,0,1,48.05,79Z"/></g></g></svg>