<svg xmlns="http://www.w3.org/2000/svg" viewBox="0 0 170.84 156.14"><defs><style>.cls-1{fill:#fff;}</style></defs><title>Kelola Pengelompokkan Anggota
</title><g id="Layer_2" data-name="Layer 2"><g id="Layer_3" data-name="Layer 3"><path class="cls-1" d="M124.3,75a26.63,26.63,0,0,0-2.59-2.27l-4.5-3h0A15.05,15.05,0,1,0,93.37,51.38a19.46,19.46,0,0,1,8.47,25.46l1,.66.23.17a31.41,31.41,0,0,1,3,2.64,30.67,30.67,0,0,1,9.07,21.82v2.15c0,.38,0,.76-.06,1.13h7.5a9.53,9.53,0,0,0,9.51-9.51V93.75A26.4,26.4,0,0,0,124.3,75Z"/><path class="cls-1" d="M44.61,75a27.86,27.86,0,0,1,2.59-2.27l4.5-3h0A15.06,15.06,0,1,1,75.55,51.38a19.43,19.43,0,0,0-8.47,25.46l-1,.66-.23.17a32.68,32.68,0,0,0-3,2.64,30.7,30.7,0,0,0-9.06,21.82v2.15c0,.38,0,.76.05,1.13h-7.5a9.54,9.54,0,0,1-9.51-9.51V93.75A26.4,26.4,0,0,1,44.61,75Z"/><path class="cls-1" d="M103.17,83.42a26.63,26.63,0,0,0-2.59-2.27l-4.5-3h0a15.06,15.06,0,1,0-23.25,0h0l-4.5,3a26.61,26.61,0,0,0-10.36,21v2.15a9.54,9.54,0,0,0,9.51,9.51h34a9.53,9.53,0,0,0,9.51-9.51v-2.15A26.42,26.42,0,0,0,103.17,83.42Z"/><path class="cls-1" d="M154.06,77.48a4,4,0,0,1-4-4A65.49,65.49,0,0,0,22,54a4,4,0,1,1-7.64-2.38A73.49,73.49,0,0,1,158.06,73.48,4,4,0,0,1,154.06,77.48Z"/><path class="cls-1" d="M154.06,80.77a4,4,0,0,1-2.83-1.17L138.45,66.81a4,4,0,1,1,5.65-5.65l10,10,9.95-10a4,4,0,0,1,5.66,5.65L156.88,79.6A4,4,0,0,1,154.06,80.77Z"/><path class="cls-1" d="M86.26,156.14A73.57,73.57,0,0,1,12.78,82.66a4,4,0,0,1,8,0,65.49,65.49,0,0,0,128,19.47,4,4,0,1,1,7.64,2.38A73.15,73.15,0,0,1,86.26,156.14Z"/><path class="cls-1" d="M29.57,96.15A4,4,0,0,1,26.74,95l-10-10-10,10a4,4,0,0,1-5.66-5.65L14,76.54a4,4,0,0,1,5.65,0L32.39,89.33a4,4,0,0,1-2.82,6.82Z"/></g></g></svg>