<svg xmlns="http://www.w3.org/2000/svg" width="80" height="69" viewBox="0 0 80 69">
    <g fill="none" fill-rule="evenodd">
        <path fill="#12B505" d="M78.068 22.61c-.99-2.928-2.339-5.822-2.328-8.978.01-3.173.81-6.374 2.209-9.207.526-1.065-.585-2.197-1.644-1.678l-.084.041c-2.817 1.38-5.963 2.126-9.097 2.077-3.241-.051-6.222-1.235-9.257-2.258C53.337 1.081 46.906.127 39.77.127c-8.297 0-15.641 1.289-20.151 3.268C11.109 6.657 4.466 13.758 1.76 22.61.661 25.864 0 30.026 0 34.564c0 4.537.66 8.7 1.761 11.954 2.949 9.648 10.575 17.22 20.2 20.002C26.492 68.047 32.925 69 40.06 69c8.296 0 15.641-1.288 20.151-3.268 8.51-3.262 15.152-10.363 17.857-19.214 1.1-3.254 1.761-7.417 1.761-11.954 0-4.538-.66-8.7-1.761-11.955"/>
        <path fill="#FFF" d="M50.989 31.935c0-2.657 2.156-3.986 4.866-3.986 2.71 0 4.804 1.329 4.804 3.986V48.42c0 2.657-2.094 3.985-4.804 3.985-2.71 0-4.866-1.328-4.866-3.985V31.935zM50.989 21.298c0 2.687 2.156 4.031 4.866 4.031 2.71 0 4.804-1.344 4.804-4.031v-.672c0-2.687-2.094-4.031-4.804-4.031-2.71 0-4.866 1.344-4.866 4.031v.672zM19.34 20.699c0-2.778 2.153-4.146 4.914-4.103 2.623.04 4.725 2.215 4.725 4.872v8.343c0 .565.452 1.022 1.009 1.022h5.96c.556 0 1.007-.457 1.007-1.02v-8.345c0-2.657 2.103-4.832 4.725-4.872 2.762-.043 4.913 1.325 4.913 4.103v27.777c0 2.615-2.068 4.757-4.65 4.801-2.766.047-4.988-1.32-4.988-4.102V40.03c0-.564-.452-1.022-1.009-1.022h-5.958c-.557 0-1.009.458-1.009 1.022v8.376c0 2.656-2.102 4.831-4.725 4.872-2.761.042-4.913-1.325-4.913-4.103V20.699z"/>
    </g>
</svg>
