<svg xmlns="http://www.w3.org/2000/svg" viewBox="0 0 159.87 115.29"><defs><style>.cls-1{fill:#fff;}</style></defs><title>Profiling Anggota</title><g id="Layer_2" data-name="Layer 2"><g id="Layer_3" data-name="Layer 3"><path class="cls-1" d="M146.82,50.24a44.81,44.81,0,0,0-4.34-3.81l-7.56-5.09h0a25.27,25.27,0,1,0-40-30.82,32.62,32.62,0,0,1,14.21,42.74l1.65,1.11.39.28a52,52,0,0,1,20.27,41.07v3.61c0,.63,0,1.26-.09,1.89h12.58a16,16,0,0,0,16-16V81.65A44.35,44.35,0,0,0,146.82,50.24Z"/><path class="cls-1" d="M13.06,50.24a43.66,43.66,0,0,1,4.34-3.81L25,41.34h0A25.27,25.27,0,1,1,65,10.52,32.65,32.65,0,0,0,50.76,53.26l-1.64,1.11a3.89,3.89,0,0,0-.39.28A52.06,52.06,0,0,0,28.45,95.72v3.61c0,.63.05,1.26.1,1.89H16a16,16,0,0,1-16-16V81.65A44.32,44.32,0,0,1,13.06,50.24Z"/><path class="cls-1" d="M111.35,64.31A46.21,46.21,0,0,0,107,60.5l-7.56-5.09h0a25.28,25.28,0,1,0-39,0h0L52.87,60.5a45,45,0,0,0-4.34,3.81A44.34,44.34,0,0,0,35.47,95.72v3.61a16,16,0,0,0,16,16h57a16,16,0,0,0,16-16V95.72A44.37,44.37,0,0,0,111.35,64.31Z"/></g></g></svg>