<svg xmlns="http://www.w3.org/2000/svg" viewBox="0 0 170.84 156.14"><defs><style>.cls-1{fill:#fff;}</style></defs><title>Role Management
</title><g id="Layer_2" data-name="Layer 2"><g id="Layer_3" data-name="Layer 3"><path class="cls-1" d="M109,79a35.25,35.25,0,0,0-3.37-3l-5.87-3.95h0a19.65,19.65,0,1,0-30.33,0h0l-5.87,3.95a34.08,34.08,0,0,0-3.37,3A34.45,34.45,0,0,0,50,103.44v2.81a12.44,12.44,0,0,0,12.4,12.4H106.7a12.43,12.43,0,0,0,12.4-12.4v-2.81A34.45,34.45,0,0,0,109,79Z"/><path class="cls-1" d="M154.06,77.48a4,4,0,0,1-4-4A65.49,65.49,0,0,0,22,54a4,4,0,1,1-7.64-2.38A73.49,73.49,0,0,1,158.06,73.48,4,4,0,0,1,154.06,77.48Z"/><path class="cls-1" d="M154.06,80.77a4,4,0,0,1-2.83-1.17L138.45,66.81a4,4,0,1,1,5.65-5.65l10,10,9.95-10a4,4,0,0,1,5.66,5.65L156.88,79.6A4,4,0,0,1,154.06,80.77Z"/><path class="cls-1" d="M86.26,156.14A73.57,73.57,0,0,1,12.78,82.66a4,4,0,0,1,8,0,65.49,65.49,0,0,0,128,19.47,4,4,0,1,1,7.64,2.38A73.15,73.15,0,0,1,86.26,156.14Z"/><path class="cls-1" d="M29.57,96.15A4,4,0,0,1,26.74,95l-10-10-10,10a4,4,0,0,1-5.66-5.65L14,76.54a4,4,0,0,1,5.65,0L32.39,89.33a4,4,0,0,1-2.82,6.82Z"/></g></g></svg>